<svg width="72" height="72" viewBox="0 0 72 72" fill="none" xmlns="http://www.w3.org/2000/svg">
<g clip-path="url(#clip0_12_23)">
<path fill-rule="evenodd" clip-rule="evenodd" d="M72 22.52C72 21.66 72 20.8 72 19.94C72 19.22 71.99 18.49 71.97 17.77C71.93 16.19 71.83 14.6 71.55 13.04C71.27 11.46 70.8 9.98 70.07 8.54C69.35 7.13 68.41 5.83 67.29 4.71C66.17 3.59 64.87 2.65 63.46 1.93C62.02 1.2 60.55 0.73 58.97 0.45C57.41 0.17 55.82 0.08 54.24 0.03C53.51 0.02 52.78 0.01 52.06 0C51.2 0 50.34 0 49.48 0H22.52C21.66 0 20.8 0 19.94 0C19.22 0 18.49 0.01 17.77 0.03C16.19 0.07 14.6 0.17 13.04 0.45C11.46 0.74 9.98 1.2 8.55 1.94C7.13 2.66 5.84 3.6 4.72 4.72C3.6 5.84 2.65 7.13 1.93 8.55C1.2 9.99 0.73 11.46 0.45 13.05C0.17 14.61 0.08 16.2 0.03 17.78C0.02 18.5 0.01 19.22 0 19.94C0 20.8 0 21.66 0 22.52V49.47C0 50.33 0 51.19 0 52.05C0 52.77 0.01 53.5 0.03 54.22C0.07 55.8 0.17 57.39 0.45 58.95C0.73 60.53 1.2 62.01 1.93 63.45C2.65 64.86 3.59 66.16 4.71 67.28C5.83 68.4 7.13 69.34 8.54 70.06C9.98 70.79 11.45 71.26 13.03 71.54C14.59 71.82 16.18 71.91 17.76 71.96C18.48 71.98 19.21 71.99 19.93 71.99C20.79 72 21.65 71.99 22.51 71.99H49.46C50.32 71.99 51.18 71.99 52.04 71.99C52.76 71.99 53.49 71.98 54.21 71.96C55.79 71.92 57.38 71.82 58.94 71.54C60.52 71.26 62 70.79 63.43 70.06C64.84 69.34 66.14 68.4 67.26 67.28C68.38 66.16 69.32 64.87 70.04 63.45C70.77 62.01 71.24 60.54 71.52 58.95C71.8 57.39 71.89 55.8 71.94 54.22C71.96 53.5 71.97 52.77 71.97 52.05C71.98 51.19 71.97 50.33 71.97 49.47L72 22.52Z" fill="url(#paint0_linear_12_23)"/>
<path fill-rule="evenodd" clip-rule="evenodd" d="M50.9 11C50.73 11.02 49.18 11.29 48.99 11.33L27.59 15.65H27.58C27.02 15.77 26.58 15.97 26.25 16.25C25.84 16.59 25.62 17.08 25.53 17.64C25.51 17.76 25.48 18 25.48 18.36C25.48 18.36 25.48 40.22 25.48 45.14C25.48 45.77 25.43 46.37 25.01 46.89C24.59 47.41 24.06 47.56 23.45 47.69C22.98 47.78 22.52 47.88 22.05 47.97C20.28 48.33 19.13 48.57 18.09 48.97C17.09 49.36 16.35 49.85 15.75 50.47C14.57 51.7 14.09 53.38 14.26 54.95C14.4 56.29 15 57.57 16.04 58.51C16.74 59.15 17.61 59.64 18.64 59.84C19.71 60.05 20.84 59.98 22.5 59.64C23.38 59.46 24.21 59.18 25 58.72C25.78 58.26 26.45 57.65 26.97 56.9C27.49 56.15 27.83 55.32 28.02 54.43C28.21 53.52 28.26 52.69 28.26 51.78V28.56C28.26 27.32 28.61 26.99 29.62 26.74C29.62 26.74 47.41 23.15 48.24 22.99C49.4 22.77 49.94 23.1 49.94 24.31V40.17C49.94 40.8 49.93 41.43 49.51 41.95C49.09 42.47 48.56 42.62 47.95 42.75C47.48 42.84 47.02 42.94 46.55 43.03C44.78 43.39 43.63 43.63 42.59 44.03C41.59 44.42 40.85 44.91 40.25 45.53C39.07 46.76 38.55 48.44 38.72 50.01C38.86 51.35 39.5 52.63 40.54 53.57C41.24 54.21 42.11 54.68 43.14 54.89C44.21 55.1 45.34 55.03 47 54.69C47.88 54.51 48.71 54.25 49.5 53.78C50.28 53.32 50.95 52.71 51.47 51.96C51.99 51.21 52.33 50.38 52.52 49.49C52.71 48.58 52.72 47.75 52.72 46.84V12.89C52.71 11.66 52.06 10.9 50.9 11Z" fill="white"/>
</g>
<defs>
<linearGradient id="paint0_linear_12_23" x1="36" y1="71.721" x2="36" y2="1.5518" gradientUnits="userSpaceOnUse">
<stop stop-color="#FA233B"/>
<stop offset="1" stop-color="#FB5C74"/>
</linearGradient>
<clipPath id="clip0_12_23">
<rect width="72" height="72" fill="white"/>
</clipPath>
</defs>
</svg>
