<svg width="218" height="219" viewBox="0 0 218 219" fill="none" xmlns="http://www.w3.org/2000/svg">
<g clip-path="url(#clip0_12_20)">
<circle cx="109" cy="110" r="100" fill="white"/>
<path d="M113.37 0.310019C52.99 -2.08998 2.10003 44.91 -0.289975 105.29C-2.68997 165.67 44.32 216.55 104.69 218.95C165.07 221.35 215.95 174.35 218.35 113.97C220.74 53.59 173.74 2.70002 113.37 0.310019ZM159.55 160.59C158.19 162.99 155.54 164.19 152.96 163.83C152.17 163.72 151.38 163.46 150.64 163.04C136.18 154.81 120.42 149.45 103.8 147.11C87.18 144.77 70.55 145.58 54.38 149.51C50.87 150.36 47.34 148.21 46.49 144.7C45.64 141.19 47.79 137.66 51.3 136.81C69.08 132.49 87.36 131.6 105.62 134.17C123.88 136.74 141.2 142.63 157.11 151.68C160.24 153.47 161.34 157.45 159.56 160.59H159.55ZM173.93 131.87C171.7 135.99 166.54 137.53 162.42 135.3C145.5 126.15 127.18 120.14 107.97 117.44C88.76 114.74 69.5 115.47 50.71 119.6C49.69 119.82 48.68 119.86 47.7 119.72C44.29 119.24 41.37 116.7 40.59 113.13C39.58 108.55 42.48 104.02 47.06 103.01C67.83 98.44 89.12 97.63 110.34 100.61C131.55 103.59 151.8 110.23 170.5 120.35C174.63 122.58 176.16 127.73 173.93 131.86V131.87ZM189.87 99.49C187.77 103.53 183.4 105.62 179.14 105.02C177.99 104.86 176.86 104.5 175.77 103.94C156.07 93.69 134.85 86.92 112.7 83.81C90.55 80.7 68.28 81.36 46.52 85.78C40.86 86.93 35.35 83.27 34.2 77.62C33.05 71.96 36.71 66.45 42.36 65.3C66.46 60.41 91.1 59.68 115.61 63.12C140.12 66.56 163.6 74.06 185.42 85.41C190.54 88.07 192.53 94.38 189.87 99.5V99.49Z" fill="#1ED760"/>
</g>
<defs>
<clipPath id="clip0_12_20">
<rect width="218" height="219" fill="white"/>
</clipPath>
</defs>
</svg>
